<svg width="692" height="189" viewBox="0 0 692 189" fill="none" xmlns="http://www.w3.org/2000/svg">
<path d="M164.312 32C190.619 32 211.945 53.3259 211.945 79.6328V85H221.5C226.747 85 231 89.2533 231 94.5C231 99.7467 226.747 104 221.5 104H211.945V121.218C211.945 140.927 195.968 156.904 176.259 156.904H86.7412C67.0322 156.904 51.0549 140.927 51.0547 121.218V104H41.5C36.2533 104 32 99.7467 32 94.5C32 89.2533 36.2533 85 41.5 85H51.0547V79.6328C51.0548 53.326 72.3807 32.0001 98.6875 32C111.405 32 122.957 36.9846 131.5 45.1055C140.043 36.9845 151.595 32 164.312 32Z" fill="#0046FF"/>
<path d="M80.6914 79.6333C80.6914 69.6952 88.7479 61.6387 98.6861 61.6387V61.6387C108.624 61.6387 116.681 69.6952 116.681 79.6334V115.266C116.681 121.894 111.308 127.266 104.681 127.266H92.6914C86.064 127.266 80.6914 121.894 80.6914 115.266V79.6333Z" fill="black"/>
<path d="M104.681 119.267V127.267H92.6914V119.267H104.681ZM108.681 115.267V79.6338C108.681 74.114 104.206 69.6389 98.6865 69.6387C93.1666 69.6387 88.6914 74.1139 88.6914 79.6338V115.267C88.6916 117.476 90.4824 119.267 92.6914 119.267V127.267L92.3818 127.263C86.0004 127.101 80.857 121.958 80.6953 115.576L80.6914 115.267V79.6338C80.6914 69.6956 88.7483 61.6387 98.6865 61.6387L99.1504 61.6445C108.874 61.8908 116.681 69.8508 116.681 79.6338V115.267L116.677 115.576C116.515 121.958 111.372 127.101 104.99 127.263L104.681 127.267V119.267C106.89 119.267 108.681 117.476 108.681 115.267Z" fill="white"/>
<path d="M146.32 79.6333C146.32 69.6952 154.377 61.6387 164.315 61.6387V61.6387C174.253 61.6387 182.31 69.6952 182.31 79.6334V115.266C182.31 121.894 176.937 127.266 170.31 127.266H158.32C151.693 127.266 146.32 121.894 146.32 115.266V79.6333Z" fill="black"/>
<path d="M170.31 119.267V127.267H158.32V119.267H170.31ZM174.31 115.267V79.6338C174.31 74.114 169.835 69.6389 164.315 69.6387C158.796 69.6387 154.32 74.1139 154.32 79.6338V115.267C154.32 117.476 156.111 119.267 158.32 119.267V127.267L158.011 127.263C151.629 127.101 146.486 121.958 146.324 115.576L146.32 115.267V79.6338C146.32 69.6956 154.377 61.6387 164.315 61.6387L164.779 61.6445C174.503 61.8908 182.31 69.8508 182.31 79.6338V115.267L182.306 115.576C182.144 121.958 177.001 127.101 170.619 127.263L170.31 127.267V119.267C172.519 119.267 174.309 117.476 174.31 115.267Z" fill="white"/>
<path d="M568.613 73C585.458 73 599.113 86.6553 599.113 103.5V139H581.113V101.553C581.113 94.6493 575.517 89.0529 568.613 89.0527C561.71 89.0527 556.113 94.6492 556.113 101.553V139H538.113V103.5C538.113 86.6554 551.769 73.0001 568.613 73Z" fill="black"/>
<path d="M634.723 140C619.021 140 609.319 130.337 606 120.544L621.064 114.617C622.596 120.673 627.574 125.698 634.723 125.698C639.702 125.698 643.021 123.25 643.021 119.642C643.021 109.463 608.936 116.292 608.936 91.6827C608.936 81.5038 617.745 73 631.915 73C645.064 73 655.915 79.4423 658.851 88.8481L643.787 95.1615C642.128 89.2346 636.894 86.5288 632.553 86.5288C628.34 86.5288 625.404 88.3327 625.404 91.1673C625.404 101.475 660 92.9712 660 119.256C660 130.465 649.787 140 634.723 140Z" fill="black"/>
<path d="M497 140C477.06 140 463 125.827 463 106.5C463 87.1731 477.06 73 497 73C516.684 73 531 87.1731 531 106.5C531 125.827 516.684 140 497 140ZM497 123.894C506.075 123.894 512.211 116.808 512.211 106.5C512.211 96.1923 506.075 89.1058 497 89.1058C487.797 89.1058 481.662 96.1923 481.662 106.5C481.662 116.808 487.797 123.894 497 123.894Z" fill="black"/>
<path d="M437.819 139V74.8177H456.921V139H437.819ZM447.305 66.2855C440.808 66.2855 436 61.319 436 55.0791C436 48.9665 440.808 44 447.305 44C453.932 44 459 48.9665 459 55.0791C459 61.319 453.932 66.2855 447.305 66.2855Z" fill="black"/>
<path d="M407 139V49H425V139H407Z" fill="black"/>
<path d="M376 139V49H395V139H376Z" fill="black"/>
<path d="M344.898 139V74.8177H364.831V139H344.898ZM354.797 66.2855C348.017 66.2855 343 61.319 343 55.0791C343 48.9665 348.017 44 354.797 44C361.712 44 367 48.9665 367 55.0791C367 61.319 361.712 66.2855 354.797 66.2855Z" fill="black"/>
<path d="M267 139V50H303.673C319.886 50 332.368 58.01 332.368 72.8857C332.368 81.2771 327.092 87.6343 321.945 90.4314C330.051 93.61 337 100.857 337 112.427C337 129.337 323.618 139 304.574 139H267ZM302.901 121.709C313.324 121.709 317.827 118.149 317.827 111.283C317.827 104.29 313.324 100.476 302.901 100.476H287.331V121.709H302.901ZM302 83.6929C310.107 83.6929 313.71 80.26 313.71 74.7929C313.71 69.1986 310.107 65.7657 301.614 65.7657H287.331V83.6929H302Z" fill="black"/>
</svg>
