<svg width="3189" height="1020" viewBox="0 0 3189 1020" fill="none" xmlns="http://www.w3.org/2000/svg">
<rect x="196.891" y="823.109" width="626.219" height="626.219" rx="123.887" transform="rotate(-90 196.891 823.109)" fill="#99FE5B"/>
<path d="M528.881 709.147C581.281 709.147 631.534 688.331 668.586 651.279C705.638 614.227 726.454 563.973 726.454 511.574C726.454 459.174 705.638 408.921 668.586 371.868C631.534 334.816 581.281 314 528.881 314L528.881 709.147Z" fill="#131313"/>
<rect x="363.287" y="469.421" width="78.3105" height="239.726" fill="#131313"/>
<circle cx="402.057" cy="365.13" r="51.1298" fill="#131313"/>
<path d="M2712.98 340.131H2819.58C2851.88 340.131 2880.96 346.591 2906.8 359.513C2932.96 372.434 2953.64 391.654 2968.82 417.173C2984.33 442.693 2992.08 473.542 2992.08 509.721C2992.08 545.901 2984.33 576.75 2968.82 602.269C2953.64 627.789 2932.96 647.009 2906.8 659.93C2880.96 672.851 2851.88 679.312 2819.58 679.312H2712.98V340.131ZM2815.71 629.404C2837.35 629.404 2857.05 625.366 2874.82 617.29C2892.59 608.891 2906.8 595.809 2917.46 578.042C2928.44 559.952 2933.93 537.179 2933.93 509.721C2933.93 482.264 2928.44 459.49 2917.46 441.401C2906.8 423.311 2892.59 410.228 2874.82 402.153C2857.05 393.754 2837.35 389.554 2815.71 389.554H2768.7V629.404H2815.71Z" fill="#131313"/>
<path d="M2614.48 435.102H2667.3V679.312H2614.48V435.102ZM2640.65 394.4C2630.96 394.4 2622.88 391.17 2616.42 384.709C2609.96 377.925 2606.73 369.85 2606.73 360.482C2606.73 350.791 2609.96 342.715 2616.42 336.255C2622.88 329.471 2630.96 326.079 2640.65 326.079C2650.66 326.079 2658.9 329.471 2665.36 336.255C2672.14 342.715 2675.54 350.791 2675.54 360.482C2675.54 369.85 2672.14 377.925 2665.36 384.709C2658.9 391.17 2650.66 394.4 2640.65 394.4Z" fill="#131313"/>
<path d="M2536.72 683.188C2526.71 683.188 2518.47 679.958 2512.01 673.497C2505.55 667.037 2502.32 658.961 2502.32 649.27C2502.32 639.579 2505.55 631.504 2512.01 625.043C2518.47 618.582 2526.71 615.352 2536.72 615.352C2546.73 615.352 2554.97 618.582 2561.43 625.043C2567.89 631.504 2571.12 639.579 2571.12 649.27C2571.12 658.961 2567.89 667.037 2561.43 673.497C2554.97 679.958 2546.73 683.188 2536.72 683.188Z" fill="#131313"/>
<path d="M2361.57 683.188C2337.34 683.188 2315.7 677.858 2296.64 667.198C2277.58 656.215 2262.56 641.194 2251.58 622.135C2240.92 603.077 2235.59 581.434 2235.59 557.206C2235.59 532.979 2240.92 511.336 2251.58 492.277C2262.56 473.219 2277.58 458.359 2296.64 447.699C2315.7 436.716 2337.34 431.225 2361.57 431.225C2385.8 431.225 2407.44 436.716 2426.5 447.699C2445.56 458.359 2460.42 473.219 2471.08 492.277C2482.06 511.336 2487.55 532.979 2487.55 557.206C2487.55 581.434 2482.06 603.077 2471.08 622.135C2460.42 641.194 2445.56 656.215 2426.5 667.198C2407.44 677.858 2385.8 683.188 2361.57 683.188ZM2288.89 557.206C2288.89 580.788 2295.51 600.008 2308.75 614.867C2322.32 629.726 2339.93 637.156 2361.57 637.156C2383.21 637.156 2400.66 629.726 2413.9 614.867C2427.47 600.008 2434.25 580.788 2434.25 557.206C2434.25 533.625 2427.47 514.405 2413.9 499.546C2400.66 484.686 2383.21 477.257 2361.57 477.257C2339.93 477.257 2322.32 484.686 2308.75 499.546C2295.51 514.405 2288.89 533.625 2288.89 557.206Z" fill="#131313"/>
<path d="M2079.32 683.189C2055.09 683.189 2034.09 677.859 2016.32 667.199C1998.88 656.539 1985.48 641.679 1976.11 622.621C1967.06 603.562 1962.54 581.757 1962.54 557.207C1962.54 532.657 1967.06 510.852 1976.11 491.794C1985.48 472.735 1998.88 457.875 2016.32 447.216C2033.77 436.556 2054.44 431.226 2078.35 431.226C2093.85 431.226 2108.23 434.456 2121.47 440.916C2135.04 447.054 2145.54 455.291 2152.97 465.628V336.255H2205.78V679.312H2152.97V648.301C2147.15 658.638 2137.46 667.037 2123.89 673.498C2110.33 679.958 2095.47 683.189 2079.32 683.189ZM2015.36 557.207C2015.36 581.111 2021.82 600.493 2034.74 615.352C2047.66 629.889 2064.78 637.157 2086.1 637.157C2107.42 637.157 2124.54 629.889 2137.46 615.352C2150.38 600.493 2156.84 581.111 2156.84 557.207C2156.84 532.98 2150.38 513.598 2137.46 499.062C2124.54 484.525 2107.42 477.257 2086.1 477.257C2064.78 477.257 2047.66 484.525 2034.74 499.062C2021.82 513.598 2015.36 532.98 2015.36 557.207Z" fill="#131313"/>
<path d="M1881.07 521.35C1881.07 506.491 1876.23 494.7 1866.54 485.978C1857.17 477.257 1844.41 472.896 1828.26 472.896C1813.4 472.896 1801.12 477.095 1791.43 485.494C1781.74 493.57 1776.09 504.876 1774.47 519.412L1726.99 510.69C1730.86 486.786 1742.17 467.566 1760.91 453.029C1779.64 438.493 1802.09 431.225 1828.26 431.225C1859.91 431.225 1885.27 439.785 1904.33 456.906C1923.39 473.703 1932.92 497.123 1932.92 527.165V679.311H1881.07V642.002C1873.97 654.277 1863.47 664.291 1849.58 672.043C1835.69 679.473 1820.67 683.188 1804.51 683.188C1788.69 683.188 1774.47 680.119 1761.87 673.982C1749.6 667.844 1739.91 659.284 1732.8 648.301C1726.02 637.318 1722.63 624.881 1722.63 610.991C1722.63 587.087 1731.83 568.512 1750.25 555.268C1768.98 542.024 1797.25 533.464 1835.04 529.587L1881.07 524.742V521.35ZM1774.47 609.537C1774.47 619.228 1778.19 627.142 1785.62 633.28C1793.05 639.417 1802.9 642.486 1815.17 642.486C1835.53 642.486 1851.52 636.187 1863.14 623.589C1874.77 610.991 1880.75 594.516 1881.07 574.165V563.99L1834.56 569.32C1814.85 571.581 1799.83 576.265 1789.49 583.372C1779.48 590.155 1774.47 598.877 1774.47 609.537Z" fill="#131313"/>
<path d="M1497.05 435.102H1550.84L1611.4 617.775L1671.97 435.102H1726.24L1637.09 679.312H1586.21L1497.05 435.102Z" fill="#131313"/>
<path d="M1427.14 435.102H1479.96V679.312H1427.14V435.102ZM1453.31 394.4C1443.62 394.4 1435.54 391.17 1429.08 384.709C1422.62 377.925 1419.39 369.85 1419.39 360.482C1419.39 350.791 1422.62 342.715 1429.08 336.255C1435.54 329.471 1443.62 326.079 1453.31 326.079C1463.32 326.079 1471.56 329.471 1478.02 336.255C1484.8 342.715 1488.19 350.791 1488.19 360.482C1488.19 369.85 1484.8 377.925 1478.02 384.709C1471.56 391.17 1463.32 394.4 1453.31 394.4Z" fill="#131313"/>
<path d="M1406.07 486.463C1397.35 482.587 1386.85 480.648 1374.58 480.648C1355.19 480.648 1339.04 489.693 1326.12 507.783C1313.52 525.549 1307.22 552.361 1307.22 588.217V679.312H1254.41V435.101H1307.22V481.617C1313.68 467.081 1324.02 455.129 1338.24 445.761C1352.45 436.07 1366.98 431.225 1381.84 431.225C1392.83 431.225 1401.87 432.678 1408.98 435.586L1406.07 486.463Z" fill="#131313"/>
<path d="M987.569 340.131H1121.3C1143.59 340.131 1163.14 344.33 1179.93 352.729C1196.73 360.805 1209.65 372.595 1218.7 388.101C1227.74 403.283 1232.26 421.05 1232.26 441.401C1232.26 461.751 1227.74 479.68 1218.7 495.185C1209.65 510.367 1196.73 522.158 1179.93 530.557C1163.14 538.632 1143.59 542.67 1121.3 542.67H1044.75V679.312H987.569V340.131ZM1117.43 493.247C1135.19 493.247 1149.08 488.724 1159.1 479.68C1169.43 470.312 1174.6 457.552 1174.6 441.401C1174.6 425.249 1169.43 412.651 1159.1 403.606C1149.08 394.238 1135.19 389.554 1117.43 389.554H1044.75V493.247H1117.43Z" fill="#131313"/>
</svg>
