<svg width="892" height="225" viewBox="0 0 892 225" fill="none" xmlns="http://www.w3.org/2000/svg">
<rect y="199.767" width="199.767" height="199.767" rx="39.5205" transform="rotate(-90 0 199.767)" fill="#93F558"/>
<path d="M105.907 163.413C122.623 163.413 138.654 156.772 150.474 144.952C162.294 133.133 168.934 117.101 168.934 100.386C168.934 83.6698 162.294 67.6387 150.474 55.8188C138.654 43.999 122.623 37.3586 105.907 37.3586L105.907 163.413Z" fill="#131313"/>
<rect x="53.0826" y="86.9387" width="24.9815" height="76.4738" fill="#131313"/>
<circle cx="65.45" cy="53.6693" r="16.3107" fill="#131313"/>
<path d="M802.646 45.6946H836.652C846.957 45.6946 856.231 47.7555 864.475 51.8775C872.822 55.9994 879.417 62.1308 884.26 70.2716C889.206 78.4124 891.679 88.2535 891.679 99.7949C891.679 111.336 889.206 121.177 884.26 129.318C879.417 137.459 872.822 143.59 864.475 147.712C856.231 151.834 846.957 153.895 836.652 153.895H802.646V45.6946ZM835.415 137.974C842.319 137.974 848.605 136.686 854.273 134.11C859.941 131.431 864.475 127.257 867.875 121.59C871.379 115.819 873.131 108.554 873.131 99.7949C873.131 91.0358 871.379 83.7709 867.875 78.0002C864.475 72.2295 859.941 68.056 854.273 65.4798C848.605 62.8006 842.319 61.461 835.415 61.461H820.422V137.974H835.415Z" fill="white"/>
<path d="M771.224 75.9907H788.073V153.895H771.224V75.9907ZM779.571 63.0066C776.48 63.0066 773.904 61.9761 771.843 59.9152C769.782 57.7512 768.751 55.1749 768.751 52.1865C768.751 49.0951 769.782 46.5189 771.843 44.4579C773.904 42.2939 776.48 41.2119 779.571 41.2119C782.766 41.2119 785.394 42.2939 787.454 44.4579C789.618 46.5189 790.701 49.0951 790.701 52.1865C790.701 55.1749 789.618 57.7512 787.454 59.9152C785.394 61.9761 782.766 63.0066 779.571 63.0066Z" fill="white"/>
<path d="M746.418 155.132C743.224 155.132 740.596 154.101 738.535 152.04C736.474 149.979 735.444 147.403 735.444 144.312C735.444 141.22 736.474 138.644 738.535 136.583C740.596 134.522 743.224 133.492 746.418 133.492C749.613 133.492 752.24 134.522 754.301 136.583C756.362 138.644 757.393 141.22 757.393 144.312C757.393 147.403 756.362 149.979 754.301 152.04C752.24 154.101 749.613 155.132 746.418 155.132Z" fill="white"/>
<path d="M690.543 155.132C682.815 155.132 675.91 153.431 669.831 150.031C663.751 146.527 658.959 141.735 655.455 135.656C652.055 129.576 650.354 122.672 650.354 114.943C650.354 107.214 652.055 100.31 655.455 94.2303C658.959 88.1504 663.751 83.4102 669.831 80.0096C675.91 76.506 682.815 74.7542 690.543 74.7542C698.272 74.7542 705.176 76.506 711.256 80.0096C717.336 83.4102 722.076 88.1504 725.477 94.2303C728.98 100.31 730.732 107.214 730.732 114.943C730.732 122.672 728.98 129.576 725.477 135.656C722.076 141.735 717.336 146.527 711.256 150.031C705.176 153.431 698.272 155.132 690.543 155.132ZM667.357 114.943C667.357 122.465 669.47 128.597 673.695 133.337C678.023 138.077 683.639 140.447 690.543 140.447C697.448 140.447 703.012 138.077 707.237 133.337C711.565 128.597 713.729 122.465 713.729 114.943C713.729 107.42 711.565 101.289 707.237 96.5488C703.012 91.8086 697.448 89.4385 690.543 89.4385C683.639 89.4385 678.023 91.8086 673.695 96.5488C669.47 101.289 667.357 107.42 667.357 114.943Z" fill="white"/>
<path d="M600.503 155.132C592.774 155.132 586.076 153.431 580.408 150.031C574.844 146.63 570.567 141.89 567.579 135.81C564.693 129.73 563.251 122.775 563.251 114.943C563.251 107.111 564.693 100.156 567.579 94.0757C570.567 87.9959 574.844 83.2557 580.408 79.8551C585.973 76.4545 592.568 74.7542 600.194 74.7542C605.14 74.7542 609.725 75.7847 613.95 77.8456C618.278 79.8035 621.628 82.4313 623.998 85.7288V44.458H640.846V153.895H623.998V144.003C622.143 147.3 619.051 149.979 614.723 152.04C610.395 154.101 605.655 155.132 600.503 155.132ZM580.099 114.943C580.099 122.569 582.16 128.751 586.282 133.492C590.404 138.129 595.865 140.447 602.667 140.447C609.468 140.447 614.929 138.129 619.051 133.492C623.173 128.751 625.234 122.569 625.234 114.943C625.234 107.214 623.173 101.031 619.051 96.3943C614.929 91.7571 609.468 89.4386 602.667 89.4386C595.865 89.4386 590.404 91.7571 586.282 96.3943C582.16 101.031 580.099 107.214 580.099 114.943Z" fill="white"/>
<path d="M537.262 103.505C537.262 98.7644 535.717 95.0031 532.625 92.2208C529.637 89.4385 525.566 88.0474 520.414 88.0474C515.674 88.0474 511.758 89.387 508.667 92.0663C505.575 94.6425 503.772 98.2491 503.257 102.886L488.108 100.104C489.345 92.4784 492.952 86.3471 498.929 81.7099C504.905 77.0727 512.067 74.7542 520.414 74.7542C530.513 74.7542 538.602 77.4849 544.682 82.9465C550.762 88.305 553.802 95.776 553.802 105.359V153.895H537.262V141.993C534.995 145.909 531.646 149.103 527.215 151.577C522.784 153.947 517.992 155.132 512.84 155.132C507.791 155.132 503.257 154.153 499.238 152.195C495.322 150.237 492.23 147.506 489.963 144.003C487.799 140.499 486.717 136.532 486.717 132.1C486.717 124.475 489.654 118.55 495.528 114.325C501.505 110.1 510.521 107.369 522.578 106.132L537.262 104.587V103.505ZM503.257 131.637C503.257 134.728 504.442 137.253 506.812 139.211C509.182 141.169 512.325 142.148 516.241 142.148C522.733 142.148 527.834 140.138 531.543 136.119C535.253 132.1 537.159 126.845 537.262 120.353V117.107L522.423 118.807C516.138 119.529 511.346 121.023 508.048 123.29C504.854 125.454 503.257 128.236 503.257 131.637Z" fill="white"/>
<path d="M414.757 75.9907H431.915L451.236 134.264L470.558 75.9907H487.87L459.428 153.895H443.198L414.757 75.9907Z" fill="white"/>
<path d="M392.456 75.9907H409.304V153.895H392.456V75.9907ZM400.802 63.0066C397.711 63.0066 395.135 61.9761 393.074 59.9152C391.013 57.7512 389.982 55.1749 389.982 52.1865C389.982 49.0951 391.013 46.5189 393.074 44.4579C395.135 42.2939 397.711 41.2119 400.802 41.2119C403.997 41.2119 406.625 42.2939 408.686 44.4579C410.85 46.5189 411.932 49.0951 411.932 52.1865C411.932 55.1749 410.85 57.7512 408.686 59.9152C406.625 61.9761 403.997 63.0066 400.802 63.0066Z" fill="white"/>
<path d="M385.734 92.3754C382.952 91.1388 379.603 90.5205 375.687 90.5205C369.504 90.5205 364.352 93.4059 360.23 99.1766C356.211 104.844 354.202 113.397 354.202 124.836V153.895H337.353V75.9907H354.202V90.8297C356.263 86.1925 359.56 82.3797 364.094 79.3913C368.628 76.2999 373.266 74.7542 378.006 74.7542C381.509 74.7542 384.395 75.2179 386.662 76.1453L385.734 92.3754Z" fill="white"/>
<path d="M252.229 45.6946H294.891C302.002 45.6946 308.236 47.0342 313.595 49.7135C318.953 52.2897 323.075 56.0509 325.96 60.9972C328.846 65.8405 330.289 71.5082 330.289 78.0002C330.289 84.4922 328.846 90.2114 325.96 95.1577C323.075 100.001 318.953 103.762 313.595 106.442C308.236 109.018 302.002 110.306 294.891 110.306H270.469V153.895H252.229V45.6946ZM293.655 94.5394C299.323 94.5394 303.754 93.0968 306.948 90.2114C310.246 87.223 311.894 83.1526 311.894 78.0002C311.894 72.8478 310.246 68.8289 306.948 65.9436C303.754 62.9552 299.323 61.461 293.655 61.461H270.469V94.5394H293.655Z" fill="white"/>
<path d="M461.808 213V199.272H459.056V196.872H461.808V195.368C461.808 191.816 463.824 189.928 466.576 189.928C467.312 189.928 468.08 189.992 468.752 190.184L468.624 192.616C468.048 192.392 467.472 192.296 466.928 192.296C465.488 192.296 464.528 193.416 464.528 195.144V196.872H468.656V199.272H464.528V213H461.808ZM478.128 213.256C473.328 213.256 469.936 209.768 469.936 204.936C469.936 200.104 473.328 196.616 478.128 196.616C482.896 196.616 486.352 200.104 486.352 204.936C486.352 209.768 482.896 213.256 478.128 213.256ZM478.128 210.824C481.36 210.824 483.536 208.392 483.536 204.936C483.536 201.48 481.36 199.048 478.128 199.048C474.896 199.048 472.72 201.48 472.72 204.936C472.72 208.392 474.896 210.824 478.128 210.824ZM499.273 199.528C498.665 199.272 497.897 199.144 497.193 199.144C494.633 199.144 492.553 201.608 492.553 206.856V213H489.833V196.872H492.553V200.136C493.481 198.088 495.593 196.616 497.577 196.616C498.249 196.616 498.889 196.712 499.433 196.904L499.273 199.528ZM502.083 213V196.872H504.803V199.912C505.603 197.992 507.203 196.616 509.667 196.616C512.291 196.616 514.339 197.832 514.915 200.008C515.779 198.088 517.699 196.616 520.131 196.616C523.587 196.616 525.763 198.792 525.763 202.184V213H523.043V202.728C523.043 200.52 521.795 199.016 519.523 199.016C516.771 199.016 515.267 201.48 515.267 204.904V213H512.547V202.728C512.547 200.52 511.299 199.016 509.059 199.016C506.307 199.016 504.803 201.48 504.803 204.904V213H502.083ZM529.249 204.936C529.249 200.36 532.193 196.616 537.057 196.616C541.825 196.616 544.769 200.04 544.769 204.2C544.769 204.584 544.737 205.16 544.705 205.448H531.969C532.161 208.712 534.209 210.856 537.121 210.856C539.585 210.856 541.281 209.704 541.761 207.688L544.321 208.296C543.521 211.432 540.833 213.256 537.121 213.256C532.289 213.256 529.249 209.512 529.249 204.936ZM532.129 203.176H541.889C541.633 200.712 539.905 198.888 537.057 198.888C534.529 198.888 532.673 200.488 532.129 203.176ZM557.711 199.528C557.103 199.272 556.335 199.144 555.631 199.144C553.071 199.144 550.991 201.608 550.991 206.856V213H548.271V196.872H550.991V200.136C551.919 198.088 554.031 196.616 556.015 196.616C556.687 196.616 557.327 196.712 557.871 196.904L557.711 199.528ZM560.521 213V190.344H563.241V213H560.521ZM578.27 196.872H581.054L572.606 218.824H569.822L572.158 212.776L565.854 196.872H568.798L573.534 209.224L578.27 196.872Z" fill="white"/>
<g clip-path="url(#clip0_103_309)">
<path d="M635.501 179L622.39 187.243V212.969L615.156 217.559L607.878 212.965V203.78L615.156 199.231L619.836 202.202V194.771L615.115 191.837L602.008 200.173V216.662L615.16 224.953L628.267 216.662V190.94L635.545 186.346L642.82 190.94V200.083L635.545 204.719L630.824 201.722V209.115L635.501 212.068L648.737 203.825V187.243L635.501 179Z" fill="white"/>
<path fill-rule="evenodd" clip-rule="evenodd" d="M712.42 214.715H718.297V179.45H712.42V214.715ZM674.639 189.648C677.424 189.648 679.733 190.873 681.56 193.319C683.389 195.765 684.301 198.799 684.301 202.421C684.301 206.044 683.386 209.078 681.56 211.524C679.73 213.97 677.424 215.195 674.639 215.195C672.666 215.195 670.952 214.529 669.503 213.192C668.082 211.826 667.037 209.983 666.367 207.663V224.246H660.491V190.124H666.367V197.176C667.034 194.856 668.082 193.028 669.503 191.695C670.956 190.329 672.666 189.648 674.639 189.648ZM672.503 209.331C674.098 209.331 675.448 208.68 676.55 207.377C677.652 206.044 678.203 204.391 678.203 202.421C678.203 200.452 677.652 198.862 676.55 197.559C675.448 196.226 674.098 195.556 672.503 195.556C670.731 195.556 669.268 196.208 668.105 197.511C666.946 198.814 666.364 200.448 666.364 202.418C666.364 204.387 666.946 206.04 668.105 207.373C669.265 208.676 670.731 209.328 672.503 209.328V209.331ZM685.862 202.421C685.862 206.044 687.008 209.078 689.3 211.524C691.593 213.97 694.453 215.195 697.877 215.195C701.302 215.195 704.163 213.97 706.455 211.524C708.747 209.078 709.893 206.044 709.893 202.421C709.893 198.799 708.747 195.765 706.455 193.319C704.163 190.873 701.302 189.648 697.877 189.648C694.453 189.648 691.593 190.873 689.3 193.319C687.008 195.765 685.862 198.799 685.862 202.421ZM693.653 207.377C692.521 206.044 691.956 204.391 691.956 202.421C691.956 200.452 692.521 198.862 693.653 197.559C694.786 196.226 696.194 195.556 697.877 195.556C699.561 195.556 700.969 196.208 702.101 197.511C703.234 198.814 703.799 200.448 703.799 202.418C703.799 204.387 703.234 206.04 702.101 207.373C700.969 208.676 699.561 209.328 697.877 209.328C696.194 209.328 694.786 208.676 693.653 207.373V207.377ZM772.59 211.524C770.298 209.078 769.152 206.044 769.152 202.421C769.152 198.799 770.298 195.765 772.59 193.319C774.882 190.873 777.743 189.648 781.167 189.648C784.592 189.648 787.452 190.873 789.745 193.319C792.037 195.765 793.183 198.799 793.183 202.421C793.183 206.044 792.037 209.078 789.745 211.524C787.452 213.97 784.592 215.195 781.167 215.195C777.743 215.195 774.886 213.97 772.59 211.524ZM775.243 202.421C775.243 204.391 775.808 206.044 776.94 207.377C778.073 208.68 779.481 209.331 781.164 209.331C782.848 209.331 784.255 208.68 785.388 207.377C786.521 206.044 787.085 204.391 787.085 202.421C787.085 200.452 786.521 198.814 785.388 197.515C784.255 196.211 782.848 195.56 781.164 195.56C779.481 195.56 778.073 196.226 776.94 197.563C775.808 198.866 775.243 200.485 775.243 202.425V202.421ZM808.824 189.648C811.321 189.648 813.324 190.601 814.83 192.507C816.367 194.413 817.136 196.844 817.136 199.797V214.711H811.259V200.94C811.259 199.35 810.797 198.047 809.865 197.031C808.936 196.014 807.777 195.504 806.382 195.504C804.814 195.504 803.539 196.014 802.553 197.031C801.566 198.047 801.073 199.35 801.073 200.94V214.711H795.196V190.124H801.073V196.416C801.655 194.32 802.628 192.667 803.991 191.461C805.386 190.255 806.994 189.652 808.824 189.652V189.648ZM732.414 208.159L738.421 190.147H744.386L732.023 224.268H726.058L729.194 215.593L720.008 190.147H726.364L732.414 208.159ZM761.098 190.124V196.286C759.874 192.265 756.85 190.124 752.827 190.124C746.753 190.124 743.161 195.932 743.161 202.038C743.161 208.144 746.726 214.428 752.827 214.428C756.85 214.428 759.874 211.253 761.098 207.232V211.949C761.098 213.952 760.503 215.601 759.313 216.904C758.122 218.207 756.674 218.859 754.959 218.859C752.637 218.859 750.912 217.589 749.78 215.046L744.512 218.095C745.498 220.098 746.906 221.699 748.736 222.909C750.565 224.115 752.64 224.719 754.959 224.719C758.384 224.719 761.245 223.497 763.537 221.048C765.829 218.602 766.975 215.567 766.975 211.945V190.124H761.098ZM759.401 206.71C758.269 207.95 756.847 208.568 755.136 208.568C753.426 208.568 752.089 207.95 750.956 206.71C749.824 205.441 749.259 203.885 749.259 202.042C749.259 200.199 749.824 198.657 750.956 197.418C752.089 196.178 753.48 195.56 755.136 195.56C756.793 195.56 758.272 196.178 759.401 197.418C760.534 198.624 761.098 200.165 761.098 202.042C761.098 203.918 760.534 205.474 759.401 206.71Z" fill="white"/>
<path d="M832.289 214.714H828.89V181.314H832.289V214.714Z" fill="white"/>
<path d="M847.329 214.714H836.563V181.314H847.329C851.717 181.314 855.378 182.921 858.313 186.133C861.277 189.314 862.759 193.275 862.759 198.014C862.759 202.754 861.277 206.73 858.313 209.943C855.378 213.124 851.717 214.714 847.329 214.714ZM839.963 184.702V211.326H847.111C850.598 211.326 853.489 210.054 855.785 207.509C858.11 204.965 859.272 201.8 859.272 198.014C859.272 194.197 858.11 191.032 855.785 188.519C853.489 185.974 850.598 184.702 847.111 184.702H839.963Z" fill="white"/>
</g>
<defs>
<clipPath id="clip0_103_309">
<rect width="261" height="46" fill="white" transform="translate(602 179)"/>
</clipPath>
</defs>
</svg>
